<svg xmlns="http://www.w3.org/2000/svg" width="281" height="94" viewBox="0 0 281 94">
  <path fill="#222" fill-rule="evenodd" d="M200.65,21.145 L200.65,1.858 L202.5,1.858 C204.03,1.858 208.41,1.794 215.63,1.666 C222.84,1.538 227.5,1.474 229.58,1.474 C236.69,1.474 243.14,2.272 248.93,3.871 C254.72,5.467 259.59,7.66 263.53,10.447 C267.46,13.236 270.76,16.556 273.42,20.409 C276.09,24.265 278.01,28.395 279.21,32.801 C280.4,37.207 280.99,41.901 280.99,46.881 C280.99,53.355 279.88,59.398 277.64,65.019 C275.4,70.639 272.17,75.59 267.93,79.868 C263.69,84.146 258.19,87.521 251.42,89.991 C244.65,92.46 237.03,93.695 228.56,93.695 C227.28,93.695 223.49,93.652 217.19,93.567 C210.89,93.48 206.12,93.439 202.89,93.439 L200.65,93.439 L200.65,74.087 L229.2,74.087 C238.35,74.087 245.57,71.705 250.85,66.935 C256.13,62.168 258.77,55.484 258.77,46.881 C258.77,38.666 256.05,32.311 250.62,27.818 C245.2,23.327 238.1,21.082 229.33,21.082 L200.65,21.145 M68.57,69.125 C62.65,73.554 56.01,75.768 48.64,75.768 C46.01,75.768 43.56,75.473 41.25,74.943 L60.04,93.742 C61.43,93.376 62.79,92.953 64.13,92.468 C69.6,90.487 73.72,87.945 76.49,84.836 L68.57,69.125 M21.76,55.457 C21.22,53.137 20.93,50.679 20.93,48.05 C20.93,39.323 23.35,32.521 28.21,27.646 C33.06,22.771 39.17,20.333 46.54,20.333 C50.45,20.333 53.79,20.813 56.56,21.771 C59.33,22.727 62.22,24.124 65.25,25.953 L74.57,10.243 C71.72,7.432 67.8,5.145 62.82,3.377 C57.84,1.611 52.41,0.727 46.54,0.727 C40.36,0.727 34.68,1.525 29.48,3.122 C24.29,4.718 19.81,6.943 16.04,9.796 C12.27,12.648 9.08,16.054 6.46,20.013 C3.84,23.974 1.9,28.316 0.62,33.042 C0.53,33.381 0.46,33.732 0.38,34.074 L21.76,55.457 M129.33,21.784 C132.86,21.401 135.03,21.209 135.84,21.209 C138.61,21.209 140.98,21.934 142.96,23.381 C144.94,24.828 145.93,26.851 145.93,29.447 C145.93,32.556 145.06,34.823 143.32,36.249 C141.57,37.676 139.23,38.389 136.29,38.389 L129.33,38.389 L129.33,21.784 Z M129.33,64.616 L129.33,56.653 L137.44,56.653 C144.85,56.653 148.55,59.399 148.55,64.892 C148.55,68.001 147.53,70.396 145.49,72.078 C143.94,73.35 141.83,74.137 139.16,74.446 L154.87,90.153 C158.91,88.175 162.27,85.419 164.87,81.784 C167.96,77.464 169.5,72.194 169.5,65.978 C169.5,60.486 168.24,55.973 165.73,52.439 C163.22,48.905 160.11,46.436 156.41,45.031 L156.41,44.776 C163.39,40.177 166.88,33.386 166.88,24.402 C166.88,21.124 166.28,18.143 165.09,15.461 C163.9,12.779 162.1,10.384 159.7,8.277 C157.29,6.17 154.09,4.53 150.08,3.36 C146.08,2.189 141.42,1.603 136.1,1.603 C127.84,1.603 118.6,1.858 108.38,2.369 L108.38,43.668 L129.33,64.616 L129.33,64.616 Z"/>
</svg>
